# File created by Blade
# Date/Time:  Mon Sep 22 15:50:36 2014
# Frame Rate: 120.000 fps
#------------------------------------------------------
:FULLY-SPECIFIED
:DEGREES
2028
root 1.664131 37.015473 3.467967 1.197784 -9.664558 1.440379
RightUpLeg 6.695206 0.014354 -2.858131
RightLeg -5.282581 -0.000000 0.000000
RightFoot -12.267538 -14.468113 14.960412
RightToeBase 14.390681 -0.000000 -0.000000
LeftUpLeg 7.968356 7.159811 2.102310
LeftLeg -4.057689 -0.000000 0.000000
LeftFoot -10.552828 15.045637 -19.227550
LeftToeBase 9.635516 -0.000000 -0.000000
Spine -7.720687 -10.820673 -4.444595
RightShoulder 7.233383 -22.996096 -13.726031
RightArm 24.600851 -34.995523 59.249727
RightForeArm 13.765694 -0.000000 40.064983
RightHand 3.377744 0.000000 1.620382
RightHandThumb1 -24.326973 -0.000000 -32.862282
LeftShoulder -15.967601 14.982011 11.508363
LeftArm 116.148158 -45.328833 -143.803870
LeftForeArm -55.587972 -0.000000 117.578856
LeftHand -15.946474 -0.000000 43.107026
LeftHandThumb1 -26.253704 0.000000 33.147579
Head 19.587637 25.650206 16.985595
2029
root 1.651646 37.009591 3.483693 1.049585 -9.749523 1.388628
RightUpLeg 6.862533 0.135750 -2.794821
RightLeg -5.270555 -0.000000 0.000000
RightFoot -12.316016 -14.463169 14.974313
RightToeBase 14.360784 -0.000000 -0.000000
LeftUpLeg 8.149548 7.036202 2.162328
LeftLeg -4.021809 -0.000000 0.000000
LeftFoot -10.713124 15.238587 -19.247746
LeftToeBase 9.607566 -0.000000 -0.000000
Spine -7.529443 -10.608838 -4.541799
RightShoulder 7.094987 -23.066841 -13.616576
RightArm 24.527215 -34.712428 59.129314
RightForeArm 13.926504 -0.000000 40.184350
RightHand 3.462629 0.000000 1.427932
RightHandThumb1 -24.326973 -0.000000 -32.862282
LeftShoulder -16.073061 15.122732 11.431560
LeftArm 115.971307 -46.238113 -143.123398
LeftForeArm -55.563285 -0.000000 117.810087
LeftHand -15.772190 -0.000000 42.792030
LeftHandThumb1 -26.253704 0.000000 33.147579
Head 19.480284 25.503346 17.095093
2030
root 1.638071 37.006250 3.497691 0.888215 -9.800202 1.345865
RightUpLeg 7.029843 0.228404 -2.734271
RightLeg -5.227242 -0.000000 0.000000
RightFoot -12.359571 -14.484364 14.949912
RightToeBase 14.364677 -0.000000 -0.000000
LeftUpLeg 8.339129 6.880328 2.215717
LeftLeg -3.998809 -0.000000 0.000000
LeftFoot -10.833236 15.437887 -19.264356
LeftToeBase 9.590922 -0.000000 -0.000000
Spine -7.325026 -10.507000 -4.677183
RightShoulder 7.039267 -23.107990 -13.459473
RightArm 24.502154 -34.484283 58.915820
RightForeArm 14.167940 -0.000000 40.217506
RightHand 3.503470 -0.000000 1.337956
RightHandThumb1 -24.326973 -0.000000 -32.862282
LeftShoulder -16.177446 15.314826 11.472391
LeftArm 116.011742 -46.847637 -142.996880
LeftForeArm -55.599481 -0.000000 118.034668
LeftHand -15.530471 -0.000000 42.291453
LeftHandThumb1 -26.253704 0.000000 33.147579
Head 19.346738 25.142633 17.041829
2031
root 1.626286 37.004130 3.513724 0.691085 -9.796666 1.312405
RightUpLeg 7.254030 0.292916 -2.680830
RightLeg -5.211027 -0.000000 0.000000
RightFoot -12.405158 -14.528766 14.970125
RightToeBase 14.369549 -0.000000 -0.000000
LeftUpLeg 8.523898 6.783961 2.267546
LeftLeg -3.912638 -0.000000 0.000000
LeftFoot -10.951306 15.556900 -19.254066
LeftToeBase 9.624052 -0.000000 -0.000000
Spine -7.063444 -10.480450 -4.788320
RightShoulder 6.988409 -23.103743 -13.344215
RightArm 24.505823 -34.295325 58.723817
RightForeArm 14.332413 -0.000000 40.178413
RightHand 3.641828 -0.000000 1.170873
RightHandThumb1 -24.326973 -0.000000 -32.862282
LeftShoulder -16.246017 15.515984 11.504481
LeftArm 116.399724 -47.194625 -143.413202
LeftForeArm -55.745732 -0.000000 118.209072
LeftHand -15.400369 -0.000000 41.927425
LeftHandThumb1 -26.253704 0.000000 33.147579
Head 19.357952 25.133547 17.212271
2032
root 1.621084 37.004144 3.523833 0.532114 -9.750283 1.281229
RightUpLeg 7.412499 0.285870 -2.641149
RightLeg -5.145918 -0.000000 0.000000
RightFoot -12.442244 -14.541956 14.966272
RightToeBase 14.339731 -0.000000 -0.000000
LeftUpLeg 8.703535 6.509507 2.295772
LeftLeg -3.927354 -0.000000 0.000000
LeftFoot -11.028329 15.771386 -19.299967
LeftToeBase 9.619038 -0.000000 -0.000000
Spine -6.832643 -10.529425 -4.840210
RightShoulder 6.962866 -23.025685 -13.254414
RightArm 24.491746 -34.122285 58.579408
RightForeArm 14.388792 -0.000000 40.042599
RightHand 3.602071 0.000000 1.050436
RightHandThumb1 -24.326973 -0.000000 -32.862282
LeftShoulder -16.288668 15.673166 11.493186
LeftArm 117.054379 -47.312299 -144.236259
LeftForeArm -55.810288 -0.000000 118.351558
LeftHand -15.311817 -0.000000 41.927313
LeftHandThumb1 -26.253704 0.000000 33.147579
Head 19.484620 25.342468 17.457220
2033
root 1.612807 37.005567 3.530574 0.385043 -9.672324 1.253402
RightUpLeg 7.548415 0.287629 -2.590043
RightLeg -5.065815 -0.000000 0.000000
RightFoot -12.504161 -14.613544 14.995978
RightToeBase 14.350491 -0.000000 -0.000000
LeftUpLeg 8.756520 6.542214 2.351775
LeftLeg -3.727893 -0.000000 0.000000
LeftFoot -11.104418 15.711514 -19.218490
LeftToeBase 9.634945 -0.000000 -0.000000
Spine -6.605976 -10.606159 -4.938822
RightShoulder 6.924416 -22.855956 -13.090719
RightArm 24.402007 -34.013281 58.459018
RightForeArm 14.521583 -0.000000 39.848634
RightHand 3.569162 -0.000000 1.172359
RightHandThumb1 -24.326973 -0.000000 -32.862282
LeftShoulder -16.321674 15.838048 11.568388
LeftArm 117.837614 -47.090232 -145.388279
LeftForeArm -55.767308 -0.000000 118.494488
LeftHand -15.383995 -0.000000 42.143368
LeftHandThumb1 -26.253704 0.000000 33.147579
Head 19.520193 25.286602 17.581827
